# xmcd
#
# Track frame offsets: 
#        150
#        17210
#        36825
#        53653
#        71883
#        92465
#        109003
#        122700
#        138210
#        150663
#        162833
#        178763
#        194138
#        209253
#        220748
#        235143
#        247110
#        259128
#        272228
#
# Disc length: 3816 seconds
#
# Revision: 3
# Processed by: cddbd v1.5.2PL0 Copyright (c) Steve Scherf et al.
# Submitted via: ExactAudioCopyFreeDBPlugin 1.0
#
DISCID=180ee613
DTITLE=The Jackson 5 - Soulsation!:  25th Anniversary Collection [box 
DTITLE=set]
DYEAR=1995
DGENRE=Soul
TTITLE0=Can't Get Ready for Losing You
TTITLE1=You Ain't Giving Me What I Want (So I'm Taking it All Back)
TTITLE2=Reach Out I'll Be There
TTITLE3=I'm Glad it Rained
TTITLE4=A Fool for You
TTITLE5=It's Your Thing
TTITLE6=Everybody is a Star
TTITLE7=I Need You (solo Jermaine Jackson)
TTITLE8=You're the Only One
TTITLE9=Just a Little Misunderstanding
TTITLE10=Jamie
TTITLE11=Ask the Lonely
TTITLE12=We Can Have Fun
TTITLE13=I Hear a Symphony
TTITLE14=Let's Have a Party
TTITLE15=Love Scenes
TTITLE16=LuLu
TTITLE17=Money Honey
TTITLE18=Coming Home
EXTD=
EXTT0=
EXTT1=
EXTT2=
EXTT3=
EXTT4=
EXTT5=
EXTT6=
EXTT7=
EXTT8=
EXTT9=
EXTT10=
EXTT11=
EXTT12=
EXTT13=
EXTT14=
EXTT15=
EXTT16=
EXTT17=
EXTT18=
PLAYORDER=
